<svg xmlns="http://www.w3.org/2000/svg" xmlns:xlink="http://www.w3.org/1999/xlink" width="294" height="182" viewBox="0 0 294 182">
  <defs>
    <clipPath id="clip-path">
      <rect id="Rectangle_951" data-name="Rectangle 951" width="294" height="182" transform="translate(598 3986)" fill="none"/>
    </clipPath>
  </defs>
  <g id="Mask_Group_1" data-name="Mask Group 1" transform="translate(-598 -3986)" clip-path="url(#clip-path)">
    <g id="Group_581" data-name="Group 581" transform="translate(600.999 3820.447)">
      <g id="Group_6" data-name="Group 6" transform="translate(0 167.767)">
        <g id="Group_2" data-name="Group 2">
          <g id="Group_1" data-name="Group 1">
            <path id="Path_1" data-name="Path 1" d="M273.285,66.764A33.735,33.735,0,0,0,284.9,41.555c0-19.429-17.151-35.179-38.307-35.179s-38.309,15.75-38.309,35.179a33.738,33.738,0,0,0,11.619,25.209,33.735,33.735,0,0,0-11.619,25.208c0,19.43,17.151,35.181,38.309,35.181S284.9,111.4,284.9,91.972A33.732,33.732,0,0,0,273.285,66.764ZM246.6,104.455c-7.508,0-13.592-5.589-13.592-12.483s6.085-12.481,13.592-12.481,13.591,5.587,13.591,12.481S254.1,104.455,246.6,104.455Zm0-50.417c-7.508,0-13.592-5.589-13.592-12.483s6.085-12.481,13.592-12.481,13.591,5.589,13.591,12.481S254.1,54.038,246.6,54.038Z" transform="translate(-59.623 -6.376)"/>
            <path id="Path_2" data-name="Path 2" d="M152.735,12.555l-29.264,37.46,15.67,20.038,13.594-17.4v71.134h24.687V12.546H152.735Z" transform="translate(-40.324 -7.78)"/>
            <path id="Path_3" data-name="Path 3" d="M112.364,12.547H81.036L40.519,64.406V12.547H15.831V123.788H40.519V73.923l38.959,49.865h31.329L68.13,69.164Z" transform="translate(-15.831 -7.78)"/>
          </g>
        </g>
        <path id="Path_4" data-name="Path 4" d="M359.1,119.711a14.068,14.068,0,0,0-4.356.734l-5.753-6.944a11.526,11.526,0,0,0-1.037-18.148l6.295-7.9a14.115,14.115,0,0,0,5.242,1.006c7.31,0,13.255-5.486,13.255-12.231S366.8,64,359.494,64s-13.253,5.486-13.253,12.23a11.852,11.852,0,0,0,5.015,9.505l-6.288,7.89a14.086,14.086,0,0,0-5.3-1.035c-7.308,0-13.254,5.488-13.254,12.233s5.946,12.23,13.254,12.23a13.942,13.942,0,0,0,6.368-1.571l5.4,6.518a11.954,11.954,0,0,0-5.59,9.942,11.8,11.8,0,0,0,4.638,9.217L343.8,149.78a14.08,14.08,0,0,0-4.473-.767c-7.31,0-13.255,5.486-13.255,12.23s5.946,12.233,13.255,12.233,13.254-5.488,13.254-12.233a11.928,11.928,0,0,0-5.464-9.846l6.489-8.362a14.044,14.044,0,0,0,5.5,1.137c7.308,0,13.254-5.486,13.254-12.231S366.41,119.711,359.1,119.711Zm-7.912-43.482c0-4.013,3.725-7.28,8.3-7.28s8.305,3.267,8.305,7.28-3.727,7.28-8.305,7.28S351.191,80.243,351.191,76.229ZM339.67,112.1c-4.578,0-8.3-3.267-8.3-7.28s3.726-7.282,8.3-7.282,8.3,3.267,8.3,7.282S344.248,112.1,339.67,112.1Zm7.956,49.141c0,4.015-3.725,7.282-8.3,7.282s-8.3-3.267-8.3-7.282,3.726-7.28,8.3-7.28S347.626,157.23,347.626,161.243ZM359.1,139.222c-4.578,0-8.3-3.267-8.3-7.28s3.725-7.28,8.3-7.28,8.3,3.267,8.3,7.28S363.681,139.222,359.1,139.222Z" transform="translate(-86.422 -19.487)" fill="#ff595a"/>
        <g id="Group_3" data-name="Group 3" transform="translate(256.28 65.557)">
          <path id="Path_5" data-name="Path 5" d="M356.873,91.244l2.656,2.117-7.793,9.777-2.656-2.117Z" transform="translate(-347.939 -91.244)" fill="#ff595a"/>
          <path id="Path_6" data-name="Path 6" d="M356.062,162.1l2.838,2.2-8.459,10.9-2.838-2.2Z" transform="translate(-347.603 -107.365)" fill="#ff595a"/>
          <path id="Path_7" data-name="Path 7" d="M361.321,136.263l-2.711,2.246-9.3-11.221,2.711-2.246Z" transform="translate(-347.992 -98.935)" fill="#ff595a"/>
        </g>
        <g id="Group_5" data-name="Group 5" transform="translate(0.426 125.641)">
          <g id="Group_4" data-name="Group 4" transform="translate(0)">
            <path id="Path_8" data-name="Path 8" d="M24.352,169.7c.471,0,.98.005,1.524.018s1.081.039,1.614.09a12.891,12.891,0,0,1,1.492.23,3.8,3.8,0,0,1,1.184.462A5.732,5.732,0,0,1,32,172.289a4.956,4.956,0,0,1,.754,2.8,5.348,5.348,0,0,1-.846,3.03,4.987,4.987,0,0,1-2.415,1.894v.06A5.068,5.068,0,0,1,32.6,181.92a5.537,5.537,0,0,1,1.077,3.447,6.542,6.542,0,0,1-.432,2.337,5.852,5.852,0,0,1-1.276,2.015,6.379,6.379,0,0,1-2.092,1.417,7.2,7.2,0,0,1-2.877.538H16.383V169.7Zm.8,9.446a5.751,5.751,0,0,0,3.584-.876,3.17,3.17,0,0,0,1.092-2.631,3.875,3.875,0,0,0-.368-1.845,2.625,2.625,0,0,0-1.015-1.046,3.987,3.987,0,0,0-1.492-.477,14.132,14.132,0,0,0-1.8-.109H19.306v6.984Zm1.478,10.063a4.2,4.2,0,0,0,3.03-1.045,3.82,3.82,0,0,0,1.092-2.894,3.587,3.587,0,0,0-.4-1.782,3.1,3.1,0,0,0-1.061-1.124,4.464,4.464,0,0,0-1.524-.585,9.294,9.294,0,0,0-1.784-.169H19.306v7.6Z" transform="translate(-16.383 -169.181)" fill="#231f20"/>
            <path id="Path_9" data-name="Path 9" d="M49.34,169.7v21.97H46.416V169.7Z" transform="translate(-23.217 -169.181)" fill="#231f20"/>
            <path id="Path_10" data-name="Path 10" d="M58.231,176.214a10.919,10.919,0,0,1,1.984-3.68,9.693,9.693,0,0,1,3.293-2.552,11.483,11.483,0,0,1,9.168,0,9.713,9.713,0,0,1,3.292,2.552,10.922,10.922,0,0,1,1.985,3.68,14.46,14.46,0,0,1,0,8.645,10.9,10.9,0,0,1-1.985,3.676,9.515,9.515,0,0,1-3.292,2.538,11.647,11.647,0,0,1-9.168,0,9.5,9.5,0,0,1-3.293-2.538,10.894,10.894,0,0,1-1.984-3.676,14.444,14.444,0,0,1,0-8.645Zm2.693,7.6a8.856,8.856,0,0,0,1.353,2.909,6.943,6.943,0,0,0,2.37,2.079,7.986,7.986,0,0,0,6.892,0,6.952,6.952,0,0,0,2.368-2.079,8.891,8.891,0,0,0,1.355-2.909,12.688,12.688,0,0,0,0-6.552,8.914,8.914,0,0,0-1.355-2.909,6.911,6.911,0,0,0-2.368-2.076,7.95,7.95,0,0,0-6.892,0,6.9,6.9,0,0,0-2.37,2.076,8.879,8.879,0,0,0-1.353,2.909,12.643,12.643,0,0,0,0,6.552Z" transform="translate(-25.754 -169.027)" fill="#231f20"/>
            <path id="Path_11" data-name="Path 11" d="M96.106,169.7l6.924,18.463,6.952-18.463h4v21.97h-2.77V173.4h-.06l-6.862,18.276H101.8L94.937,173.4h-.062v18.276H92.107V169.7Z" transform="translate(-33.613 -169.181)" fill="#231f20"/>
            <path id="Path_12" data-name="Path 12" d="M132.392,169.7v21.97h-2.924V169.7Z" transform="translate(-42.114 -169.181)" fill="#231f20"/>
            <path id="Path_13" data-name="Path 13" d="M146.295,169.7l6.924,18.463,6.953-18.463h4v21.97H161.4V173.4h-.06l-6.862,18.276h-2.493L145.125,173.4h-.062v18.276h-2.768V169.7Z" transform="translate(-45.033 -169.181)" fill="#231f20"/>
            <path id="Path_14" data-name="Path 14" d="M194.667,169.7v2.462H182.42v6.984h11.416v2.463H182.42v7.6h12.339v2.462H179.5V169.7Z" transform="translate(-53.498 -169.181)" fill="#231f20"/>
            <path id="Path_15" data-name="Path 15" d="M203.4,172.166V169.7h17.57v2.462h-7.324v19.508H210.72V172.166Z" transform="translate(-58.936 -169.181)" fill="#231f20"/>
            <path id="Path_16" data-name="Path 16" d="M234.961,169.7v21.97h-2.924V169.7Z" transform="translate(-65.453 -169.181)" fill="#231f20"/>
            <path id="Path_17" data-name="Path 17" d="M257.743,172.658a6.79,6.79,0,0,0-3.985-1.17,7.141,7.141,0,0,0-3.369.74,6.64,6.64,0,0,0-2.307,1.985,8.541,8.541,0,0,0-1.34,2.846,12.716,12.716,0,0,0-.43,3.322,14.222,14.222,0,0,0,.43,3.553,8.5,8.5,0,0,0,1.34,2.925,6.592,6.592,0,0,0,2.324,1.984,7.214,7.214,0,0,0,3.383.737,6.483,6.483,0,0,0,2.569-.477,5.8,5.8,0,0,0,1.939-1.323,6.053,6.053,0,0,0,1.277-2.015,8.382,8.382,0,0,0,.554-2.522h2.923a9.98,9.98,0,0,1-2.861,6.462,9.266,9.266,0,0,1-6.647,2.308,10.615,10.615,0,0,1-4.46-.876,8.761,8.761,0,0,1-3.171-2.417,10.348,10.348,0,0,1-1.891-3.631,15.456,15.456,0,0,1-.631-4.492,14.631,14.631,0,0,1,.677-4.507,10.877,10.877,0,0,1,1.984-3.676,9.219,9.219,0,0,1,3.261-2.477,10.534,10.534,0,0,1,4.477-.909,11.276,11.276,0,0,1,3.262.462,8.777,8.777,0,0,1,2.738,1.353,7.586,7.586,0,0,1,2,2.232,8.176,8.176,0,0,1,1.047,3.091h-2.924A5.434,5.434,0,0,0,257.743,172.658Z" transform="translate(-68.036 -169.027)" fill="#231f20"/>
            <path id="Path_18" data-name="Path 18" d="M19.306,205.588v9.446h11.57v-9.446H33.8v21.971H30.876V217.5H19.306v10.063H16.383V205.588Z" transform="translate(-16.383 -177.346)" fill="#231f20"/>
            <path id="Path_19" data-name="Path 19" d="M56.171,205.588l8.585,21.971h-3.23l-2.4-6.616H49.831l-2.46,6.616H44.386l8.553-21.971Zm2.03,12.893-3.661-10.247h-.06l-3.723,10.247Z" transform="translate(-22.755 -177.346)" fill="#231f20"/>
            <path id="Path_20" data-name="Path 20" d="M79.216,205.588v21.971H76.292V205.588Z" transform="translate(-30.015 -177.346)" fill="#231f20"/>
            <path id="Path_21" data-name="Path 21" d="M99.378,205.588a7.226,7.226,0,0,1,4.907,1.541,5.288,5.288,0,0,1,1.769,4.214,6.654,6.654,0,0,1-.908,3.508,4.671,4.671,0,0,1-2.908,2.063v.06a3.926,3.926,0,0,1,1.554.616,3.392,3.392,0,0,1,.954,1.03,4.723,4.723,0,0,1,.523,1.339,14.455,14.455,0,0,1,.261,1.537q.061.8.093,1.631a13.9,13.9,0,0,0,.154,1.631,9.832,9.832,0,0,0,.354,1.522,3.736,3.736,0,0,0,.693,1.278h-3.263a1.84,1.84,0,0,1-.415-.925,9.132,9.132,0,0,1-.138-1.3c-.022-.484-.042-1-.062-1.556a11.087,11.087,0,0,0-.185-1.631q-.124-.8-.308-1.522a3.569,3.569,0,0,0-.585-1.26,2.909,2.909,0,0,0-1.047-.864,3.885,3.885,0,0,0-1.723-.324H91.961v9.386H89.039V205.588Zm.615,9.972a4.247,4.247,0,0,0,1.616-.6,3.271,3.271,0,0,0,1.107-1.2,4.041,4.041,0,0,0,.416-1.954,3.939,3.939,0,0,0-.923-2.707,3.79,3.79,0,0,0-2.984-1.048H91.961v7.664h6.093A11.76,11.76,0,0,0,99.993,215.56Z" transform="translate(-32.915 -177.346)" fill="#231f20"/>
            <path id="Path_22" data-name="Path 22" d="M129.542,208.438a6.194,6.194,0,0,0-3.739-1.064,9.039,9.039,0,0,0-1.815.185,4.827,4.827,0,0,0-1.584.616,3.224,3.224,0,0,0-1.109,1.154,3.576,3.576,0,0,0-.415,1.8,2.294,2.294,0,0,0,.6,1.646,4.434,4.434,0,0,0,1.6,1.03,13.533,13.533,0,0,0,2.261.661q1.262.263,2.569.569t2.569.724a8.33,8.33,0,0,1,2.261,1.124,5.363,5.363,0,0,1,1.6,1.782,6.259,6.259,0,0,1-.186,5.709,6.439,6.439,0,0,1-2.015,2.03,8.769,8.769,0,0,1-2.754,1.139,13.364,13.364,0,0,1-3.031.353,12.852,12.852,0,0,1-3.492-.462,8.628,8.628,0,0,1-2.893-1.4,6.615,6.615,0,0,1-1.969-2.4,7.716,7.716,0,0,1-.722-3.461h2.768a4.967,4.967,0,0,0,.539,2.386A4.9,4.9,0,0,0,122,224.206a5.941,5.941,0,0,0,2.045.952,9.381,9.381,0,0,0,2.4.308,10.848,10.848,0,0,0,1.984-.184,5.82,5.82,0,0,0,1.8-.632,3.372,3.372,0,0,0,1.785-3.184,2.755,2.755,0,0,0-.6-1.845,4.423,4.423,0,0,0-1.6-1.154,11.838,11.838,0,0,0-2.261-.722q-1.262-.276-2.569-.571t-2.569-.677a9.33,9.33,0,0,1-2.263-1.015,4.856,4.856,0,0,1-1.6-1.631,4.8,4.8,0,0,1-.6-2.507,5.8,5.8,0,0,1,.677-2.876,5.92,5.92,0,0,1,1.8-2,8.084,8.084,0,0,1,2.554-1.17,11.268,11.268,0,0,1,2.938-.386,11.791,11.791,0,0,1,3.139.4,7.122,7.122,0,0,1,2.539,1.26,6.136,6.136,0,0,1,1.722,2.169,7.774,7.774,0,0,1,.693,3.123h-2.77A4.571,4.571,0,0,0,129.542,208.438Z" transform="translate(-39.341 -177.192)" fill="#231f20"/>
            <path id="Path_23" data-name="Path 23" d="M160.274,208.543a6.788,6.788,0,0,0-3.984-1.169,7.145,7.145,0,0,0-3.37.74,6.653,6.653,0,0,0-2.307,1.984,8.569,8.569,0,0,0-1.339,2.846,12.727,12.727,0,0,0-.43,3.323,14.223,14.223,0,0,0,.43,3.553,8.509,8.509,0,0,0,1.339,2.924,6.606,6.606,0,0,0,2.324,1.985,7.228,7.228,0,0,0,3.383.737,6.469,6.469,0,0,0,2.569-.477,5.769,5.769,0,0,0,1.939-1.323,6.043,6.043,0,0,0,1.277-2.015,8.365,8.365,0,0,0,.554-2.522h2.923a9.984,9.984,0,0,1-2.86,6.462,9.268,9.268,0,0,1-6.648,2.307,10.6,10.6,0,0,1-4.46-.876,8.754,8.754,0,0,1-3.17-2.416,10.338,10.338,0,0,1-1.892-3.631,15.458,15.458,0,0,1-.631-4.492,14.628,14.628,0,0,1,.677-4.507,10.867,10.867,0,0,1,1.985-3.676,9.228,9.228,0,0,1,3.261-2.477,10.536,10.536,0,0,1,4.477-.909,11.274,11.274,0,0,1,3.262.462,8.781,8.781,0,0,1,2.738,1.353,7.578,7.578,0,0,1,2,2.232,8.16,8.16,0,0,1,1.047,3.091h-2.924A5.435,5.435,0,0,0,160.274,208.543Z" transform="translate(-45.858 -177.192)" fill="#231f20"/>
            <path id="Path_24" data-name="Path 24" d="M181.744,205.588v21.971h-2.925V205.588Z" transform="translate(-53.344 -177.346)" fill="#231f20"/>
            <path id="Path_25" data-name="Path 25" d="M206.738,205.588v2.463H194.491v6.984h11.416V217.5H194.491v7.6H206.83v2.462H191.568V205.588Z" transform="translate(-56.245 -177.346)" fill="#231f20"/>
            <path id="Path_26" data-name="Path 26" d="M221.561,205.588l11.57,17.818h.061V205.588h2.77v21.971h-3.2l-11.476-17.63h-.063v17.63h-2.769V205.588Z" transform="translate(-62.362 -177.346)" fill="#231f20"/>
            <path id="Path_27" data-name="Path 27" d="M262.8,208.543a6.788,6.788,0,0,0-3.984-1.169,7.142,7.142,0,0,0-3.37.74,6.64,6.64,0,0,0-2.307,1.984,8.569,8.569,0,0,0-1.34,2.846,12.754,12.754,0,0,0-.43,3.323,14.254,14.254,0,0,0,.43,3.553,8.509,8.509,0,0,0,1.34,2.924,6.6,6.6,0,0,0,2.323,1.985,7.227,7.227,0,0,0,3.383.737,6.466,6.466,0,0,0,2.569-.477,5.778,5.778,0,0,0,1.94-1.323,6.04,6.04,0,0,0,1.276-2.015,8.367,8.367,0,0,0,.555-2.522h2.922a9.979,9.979,0,0,1-2.86,6.462A9.267,9.267,0,0,1,258.6,227.9a10.609,10.609,0,0,1-4.46-.876,8.76,8.76,0,0,1-3.17-2.416,10.336,10.336,0,0,1-1.891-3.631,15.432,15.432,0,0,1-.632-4.492,14.65,14.65,0,0,1,.677-4.507,10.872,10.872,0,0,1,1.985-3.676,9.219,9.219,0,0,1,3.261-2.477,10.539,10.539,0,0,1,4.477-.909,11.283,11.283,0,0,1,3.263.462,8.8,8.8,0,0,1,2.738,1.353,7.6,7.6,0,0,1,2,2.232,8.17,8.17,0,0,1,1.047,3.091H264.97A5.432,5.432,0,0,0,262.8,208.543Z" transform="translate(-69.187 -177.192)" fill="#231f20"/>
            <path id="Path_28" data-name="Path 28" d="M295.763,205.588v2.463H283.516v6.984h11.416V217.5H283.516v7.6h12.339v2.462H280.594V205.588Z" transform="translate(-76.501 -177.346)" fill="#231f20"/>
          </g>
        </g>
      </g>
    </g>
  </g>
</svg>
